<?xml version="1.0" standalone="no"?>
<!DOCTYPE svg PUBLIC "-//W3C//DTD SVG 20010904//EN"
 "http://www.w3.org/TR/2001/REC-SVG-20010904/DTD/svg10.dtd">
<svg version="1.0" xmlns="http://www.w3.org/2000/svg"
 width="1000.000000pt" height="292.000000pt" viewBox="0 0 1000.000000 292.000000"
 preserveAspectRatio="xMidYMid meet">

<g transform="translate(0.000000,292.000000) scale(0.100000,-0.100000)"
fill="#000000" stroke="none">
<path d="M4639 1230 c-58 -10 -80 -22 -113 -60 -33 -40 -46 -89 -46 -178 0
-128 36 -177 130 -177 44 0 63 5 80 20 67 60 65 195 -5 241 -30 20 -102 22
-135 4 -22 -12 -22 -11 -16 16 9 40 58 82 103 89 77 12 83 15 83 35 0 22 -6
22 -81 10z m30 -206 c40 -51 18 -157 -34 -170 -67 -17 -105 27 -105 120 0 64
12 75 77 76 33 0 46 -5 62 -26z"/>
<path d="M4233 1103 c-15 -3 -23 -12 -23 -24 0 -18 5 -19 49 -13 41 5 52 3 70
-15 11 -11 21 -31 21 -44 0 -21 -4 -23 -55 -23 -88 0 -129 -45 -111 -120 12
-45 94 -66 185 -48 l31 7 0 97 c0 53 -5 112 -11 130 -17 48 -76 68 -156 53z
m115 -205 l3 -48 -41 0 c-57 0 -80 14 -80 50 0 36 23 51 75 47 l40 -2 3 -47z"/>
<path d="M5533 1095 c-47 -20 -73 -68 -73 -135 0 -67 14 -97 59 -127 50 -34
161 -30 161 6 0 14 -11 16 -66 16 -57 0 -68 3 -85 24 -10 13 -19 34 -19 47 0
24 2 24 95 24 l95 0 0 35 c0 51 -26 94 -65 111 -42 17 -61 17 -102 -1z m91
-46 c15 -12 26 -30 26 -45 0 -23 -3 -24 -70 -24 -64 0 -70 2 -70 20 0 26 43
70 68 70 11 0 31 -9 46 -21z"/>
<path d="M6551 1092 c-48 -24 -73 -62 -79 -120 -5 -61 18 -116 62 -144 46 -29
118 -20 158 19 72 72 51 212 -38 249 -44 18 -62 18 -103 -4z m82 -34 c49 -26
68 -92 44 -151 -27 -64 -89 -77 -131 -26 -44 52 -31 148 24 176 31 16 36 16
63 1z"/>
<path d="M7211 1093 c-72 -38 -98 -116 -66 -199 29 -76 104 -104 179 -69 87
41 96 197 16 257 -38 28 -89 32 -129 11z m89 -38 c78 -40 51 -205 -34 -205
-109 0 -112 211 -3 219 4 1 21 -6 37 -14z"/>
<path d="M7867 1093 c-95 -39 -104 -207 -15 -263 49 -31 120 -23 161 18 28 28
32 39 35 99 4 81 -18 126 -73 149 -43 17 -60 17 -108 -3z m110 -57 c36 -35 35
-125 -2 -161 -59 -60 -135 -11 -135 87 0 93 76 134 137 74z"/>
<path d="M8398 1103 c-31 -5 -31 -5 -22 -27 5 -12 15 -14 48 -10 48 7 81 -14
92 -59 6 -27 6 -28 -32 -22 -86 14 -154 -37 -139 -104 12 -58 73 -81 169 -67
l46 7 0 114 c0 104 -2 116 -22 140 -24 26 -82 38 -140 28z m117 -203 l0 -45
-46 -3 c-33 -2 -51 2 -63 13 -40 40 0 88 69 83 l40 -3 0 -45z"/>
<path d="M3900 960 l0 -140 25 0 c23 0 24 3 27 68 l3 67 67 -67 c40 -41 74
-68 87 -68 12 0 21 4 21 10 0 5 -28 39 -61 75 -70 74 -71 60 15 153 39 40 39
42 16 42 -17 0 -45 -20 -87 -62 l-63 -62 0 62 c0 59 -1 62 -25 62 l-25 0 0
-140z"/>
<path d="M4820 960 c0 -132 1 -140 20 -140 13 0 39 30 85 99 36 55 70 103 75
106 6 4 10 -33 10 -99 0 -99 1 -106 20 -106 19 0 20 7 20 140 0 131 -1 140
-19 140 -23 0 -50 -31 -117 -132 l-49 -73 -3 103 c-2 94 -4 102 -22 102 -19 0
-20 -7 -20 -140z"/>
<path d="M5150 960 c0 -133 1 -140 20 -140 18 0 20 7 20 60 l0 60 70 0 70 0 0
-60 c0 -57 1 -60 25 -60 l25 0 0 140 0 140 -25 0 c-24 0 -25 -3 -25 -60 l0
-61 -67 3 -68 3 -3 58 c-3 49 -6 57 -22 57 -19 0 -20 -8 -20 -140z"/>
<path d="M5750 1080 c0 -17 7 -20 45 -20 l45 0 0 -120 0 -120 25 0 25 0 0 120
0 120 45 0 c38 0 45 3 45 20 0 19 -7 20 -115 20 -108 0 -115 -1 -115 -20z"/>
<path d="M6170 960 c0 -133 1 -140 20 -140 19 0 20 7 20 120 l0 120 70 0 70 0
0 -120 c0 -113 1 -120 20 -120 19 0 20 7 20 140 l0 140 -110 0 -110 0 0 -140z"/>
<path d="M6860 1050 c0 -81 -19 -151 -51 -183 -24 -24 -29 -37 -29 -78 0 -42
3 -49 19 -49 16 0 20 8 23 38 l3 37 108 3 107 3 0 -41 c0 -36 2 -40 25 -40 24
0 25 3 25 55 0 48 -2 55 -20 55 -19 0 -20 7 -20 125 l0 125 -95 0 -95 0 0 -50z
m140 -95 l0 -105 -71 0 c-64 0 -70 2 -64 18 24 55 34 90 35 117 1 65 9 75 56
75 l44 0 0 -105z"/>
<path d="M7520 1025 c0 -86 -17 -136 -54 -160 -26 -17 -36 -55 -16 -55 6 0 25
7 41 16 39 20 68 84 76 169 l6 65 43 0 44 0 0 -120 0 -120 25 0 25 0 0 140 0
140 -95 0 -95 0 0 -75z"/>
<path d="M8130 960 l0 -140 25 0 25 0 0 120 0 120 65 0 c58 0 65 2 65 20 0 19
-7 20 -90 20 l-90 0 0 -140z"/>
<path d="M3370 965 c0 -13 31 -15 215 -15 184 0 215 2 215 15 0 13 -31 15
-215 15 -184 0 -215 -2 -215 -15z"/>
<path d="M8660 965 c0 -13 31 -15 215 -15 184 0 215 2 215 15 0 13 -31 15
-215 15 -184 0 -215 -2 -215 -15z"/>
<path d="M6543 624 c-20 -8 6 -51 38 -64 45 -19 119 10 119 45 0 23 -32 27
-47 5 -18 -26 -59 -26 -73 0 -11 20 -16 22 -37 14z"/>
<path d="M7873 624 c-20 -8 6 -51 38 -64 46 -19 119 10 119 47 0 24 -30 27
-46 4 -19 -27 -60 -27 -74 -1 -11 20 -16 22 -37 14z"/>
<path d="M3370 400 l0 -200 30 0 30 0 0 95 0 96 98 -3 97 -3 3 -92 c3 -91 3
-93 27 -93 l25 0 0 200 0 200 -25 0 c-25 0 -25 -1 -25 -85 l0 -85 -100 0 -100
0 0 85 0 85 -30 0 -30 0 0 -200z"/>
<path d="M5820 400 l0 -200 25 0 c24 0 24 1 27 96 l3 97 53 -42 c29 -24 72
-67 95 -97 33 -42 48 -54 70 -54 15 0 27 3 27 7 0 15 -84 115 -134 159 l-55
49 92 93 c88 89 90 92 62 92 -25 0 -46 -16 -115 -85 -47 -47 -88 -85 -92 -85
-5 0 -8 38 -8 85 0 84 0 85 -25 85 l-25 0 0 -200z"/>
<path d="M3825 501 c-16 -3 -29 -10 -27 -14 1 -4 2 -13 2 -20 0 -9 12 -11 40
-9 62 6 87 -4 99 -40 6 -17 9 -33 7 -35 -2 -3 -31 -5 -63 -6 -73 -2 -110 -24
-118 -70 -17 -89 56 -132 188 -111 l37 7 0 119 c0 66 -5 128 -11 140 -20 38
-84 54 -154 39z m123 -213 c3 -44 1 -48 -23 -54 -38 -9 -93 4 -105 26 -14 27
-13 37 11 61 16 16 30 19 67 17 l47 -3 3 -47z"/>
<path d="M4405 501 c-17 -3 -30 -13 -30 -21 0 -11 16 -16 63 -20 67 -5 82 -16
82 -61 0 -23 -3 -25 -30 -21 -83 12 -150 -30 -150 -93 0 -70 66 -104 175 -90
l55 6 0 122 c0 140 -8 160 -68 177 -40 11 -51 11 -97 1z m110 -216 l0 -50 -47
1 c-53 0 -78 16 -78 50 0 33 37 55 85 52 l40 -3 0 -50z"/>
<path d="M6228 503 c-21 -3 -28 -10 -28 -26 0 -20 4 -22 58 -19 64 4 78 -4 88
-54 l6 -29 -60 0 c-72 0 -108 -18 -122 -61 -9 -25 -8 -40 4 -68 19 -46 67 -61
160 -51 l66 7 -1 106 c-1 59 -4 118 -8 131 -13 49 -85 77 -163 64z m120 -215
c3 -44 1 -48 -23 -54 -44 -11 -95 4 -105 31 -19 49 13 76 85 72 l40 -2 3 -47z"/>
<path d="M6904 500 c-40 -13 -64 -40 -70 -82 -5 -27 -1 -40 20 -65 l27 -32
-31 -54 c-36 -64 -36 -67 -7 -67 17 0 30 14 56 61 33 60 33 60 74 57 l42 -3 3
-57 c3 -54 5 -58 27 -58 l25 0 0 144 c0 80 -4 147 -8 150 -17 10 -129 15 -158
6z m94 -36 c21 -6 23 -12 20 -58 -3 -51 -3 -51 -39 -54 -50 -4 -87 13 -95 43
-12 50 48 86 114 69z"/>
<path d="M7558 503 c-21 -3 -28 -10 -28 -26 0 -21 4 -22 59 -19 52 3 61 1 75
-19 9 -13 16 -33 16 -44 0 -18 -6 -20 -58 -20 -72 0 -108 -18 -122 -61 -9 -25
-8 -40 4 -68 19 -46 67 -61 160 -51 l66 7 -1 106 c-1 59 -4 118 -8 131 -13 49
-85 77 -163 64z m120 -215 c3 -44 1 -48 -23 -54 -41 -10 -95 4 -104 29 -19 50
13 78 84 74 l40 -2 3 -47z"/>
<path d="M8596 500 c-59 -18 -96 -76 -96 -150 0 -112 77 -173 196 -155 39 6
45 9 42 28 -2 13 -9 21 -18 18 -8 -1 -37 -3 -64 -3 -55 0 -93 28 -98 72 l-3
25 103 3 102 3 0 35 c0 91 -79 150 -164 124z m80 -48 c13 -8 34 -46 34 -61 0
-7 -30 -11 -80 -11 -71 0 -79 2 -73 18 18 50 82 79 119 54z"/>
<path d="M4050 480 c0 -17 7 -20 50 -20 l50 0 0 -130 0 -130 25 0 25 0 0 130
0 130 50 0 c43 0 50 3 50 20 0 19 -7 20 -125 20 -118 0 -125 -1 -125 -20z"/>
<path d="M4720 433 c0 -108 -34 -193 -77 -193 -9 0 -13 -8 -11 -22 2 -17 9
-22 23 -20 62 11 103 80 112 192 l6 70 48 0 49 0 0 -130 0 -130 25 0 25 0 0
150 0 150 -100 0 -100 0 0 -67z"/>
<path d="M5020 351 l0 -150 54 -6 c119 -15 186 19 186 95 0 70 -66 111 -156
97 l-34 -6 0 60 c0 56 -1 59 -25 59 l-25 0 0 -149z m177 -27 c34 -47 5 -86
-71 -92 l-56 -4 0 54 c0 30 3 58 8 62 14 15 105 0 119 -20z"/>
<path d="M5330 350 c0 -149 0 -150 23 -150 17 0 38 24 97 112 l75 113 3 -112
c3 -113 3 -113 27 -113 l25 0 0 150 c0 150 0 150 -23 150 -24 0 -57 -39 -133
-154 l-39 -59 -3 106 c-3 106 -3 107 -27 107 l-25 0 0 -150z"/>
<path d="M6490 350 c0 -150 0 -150 23 -150 18 0 38 23 95 110 40 61 77 110 82
110 6 0 10 -45 10 -110 0 -103 1 -110 20 -110 19 0 20 7 20 150 0 145 -1 150
-21 150 -25 0 -39 -17 -116 -130 l-58 -85 -3 108 c-3 106 -3 107 -27 107 l-25
0 0 -150z"/>
<path d="M7217 416 c-7 -99 -26 -152 -61 -168 -17 -7 -26 -19 -26 -35 0 -27 1
-27 43 -9 54 22 80 78 92 199 l7 58 46 -3 47 -3 3 -127 3 -128 24 0 25 0 0
150 0 150 -99 0 -98 0 -6 -84z"/>
<path d="M7820 350 c0 -150 0 -150 23 -150 18 0 38 23 95 110 40 61 77 110 82
110 6 0 10 -45 10 -110 0 -103 1 -110 20 -110 19 0 20 7 20 150 0 141 -1 150
-19 150 -23 0 -61 -42 -126 -140 l-50 -75 -3 108 c-3 106 -3 107 -27 107 l-25
0 0 -150z"/>
<path d="M8170 350 l0 -150 25 0 c24 0 25 2 25 65 l0 65 75 0 75 0 0 -65 c0
-63 1 -65 25 -65 l25 0 0 150 0 150 -25 0 c-23 0 -24 -4 -27 -62 l-3 -63 -70
0 -70 0 -3 63 c-3 58 -4 62 -27 62 l-25 0 0 -150z"/>
<path d="M8840 350 l0 -150 30 0 30 0 0 65 0 65 70 0 70 0 0 -65 c0 -63 1 -65
25 -65 l25 0 0 150 0 150 -25 0 c-23 0 -24 -4 -27 -62 l-3 -63 -67 -3 -68 -3
0 66 0 65 -30 0 -30 0 0 -150z"/>
</g>
</svg>
